{
  "accessors": [
    {
      "bufferView": 2,
      "componentType": 5126,
      "count": 2064,
      "max": [
        3.7878201007843018,
        5.188029766082764,
        5.437220096588135
      ],
      "min": [
        -2.8193199634552,
        -2.170370101928711,
        0.6653919816017151
      ],
      "type": "VEC3"
    },
    {
      "bufferView": 2,
      "byteOffset": 24768,
      "componentType": 5126,
      "count": 2064,
      "max": [
        0.9997677803039551,
        0.9995147585868835,
        1.0
      ],
      "min": [
        -0.9997677803039551,
        -0.997757613658905,
        -1.0
      ],
      "type": "VEC3"
    },
    {
      "bufferView": 3,
      "componentType": 5126,
      "count": 2064,
      "max": [
        1.0,
        0.9999388456344604,
        0.9995875358581543,
        1.0
      ],
      "min": [
        -0.9942195415496826,
        -0.9999871253967285,
        -0.9993507266044617,
        -1.0
      ],
      "type": "VEC4"
    },
    {
      "bufferView": 1,
      "componentType": 5126,
      "count": 2064,
      "max": [
        0.9906960129737854,
        0.8747990131378174
      ],
      "min": [
        0.03853189945220947,
        0.00913378968834877
      ],
      "type": "VEC2"
    },
    {
      "bufferView": 0,
      "componentType": 5125,
      "count": 9540,
      "type": "SCALAR"
    },
    {
      "bufferView": 2,
      "byteOffset": 49536,
      "componentType": 5126,
      "count": 1937,
      "max": [
        0.9810019731521606,
        5.184999942779541,
        5.593490123748779
      ],
      "min": [
        -1.432070016860962,
        -1.3661199808120728,
        0.7276840209960938
      ],
      "type": "VEC3"
    },
    {
      "bufferView": 2,
      "byteOffset": 72780,
      "componentType": 5126,
      "count": 1937,
      "max": [
        0.9997677803039551,
        0.9999998807907104,
        1.0
      ],
      "min": [
        -0.9997677803039551,
        -0.9997332096099854,
        -1.0
      ],
      "type": "VEC3"
    },
    {
      "bufferView": 3,
      "byteOffset": 33024,
      "componentType": 5126,
      "count": 1937,
      "max": [
        1.0,
        0.9977248907089233,
        0.9999904632568359,
        1.0
      ],
      "min": [
        -0.9931660294532776,
        -0.9953004121780396,
        -0.9999788403511047,
        -1.0
      ],
      "type": "VEC4"
    },
    {
      "bufferView": 1,
      "byteOffset": 16512,
      "componentType": 5126,
      "count": 1937,
      "max": [
        0.2213979959487915,
        0.43886798620224
      ],
      "min": [
        0.06327810138463974,
        0.00913378968834877
      ],
      "type": "VEC2"
    },
    {
      "bufferView": 0,
      "byteOffset": 38160,
      "componentType": 5125,
      "count": 9552,
      "type": "SCALAR"
    },
    {
      "bufferView": 2,
      "byteOffset": 96024,
      "componentType": 5126,
      "count": 1380,
      "max": [
        3.543610095977783,
        1.2239199876785278,
        3.837290048599243
      ],
      "min": [
        2.247849941253662,
        -1.0415799617767334,
        1.2490899562835693
      ],
      "type": "VEC3"
    },
    {
      "bufferView": 2,
      "byteOffset": 112584,
      "componentType": 5126,
      "count": 1380,
      "max": [
        0.9995163679122925,
        0.9998906254768372,
        0.9996962547302246
      ],
      "min": [
        -0.999333381652832,
        -0.9998937845230103,
        -0.7011758089065552
      ],
      "type": "VEC3"
    },
    {
      "bufferView": 3,
      "byteOffset": 64016,
      "componentType": 5126,
      "count": 1380,
      "max": [
        0.907158613204956,
        0.9999883770942688,
        0.9999996423721313,
        1.0
      ],
      "min": [
        -0.999932050704956,
        -0.9998807311058044,
        -0.9999950528144836,
        -1.0
      ],
      "type": "VEC4"
    },
    {
      "bufferView": 1,
      "byteOffset": 32008,
      "componentType": 5126,
      "count": 1380,
      "max": [
        0.8735129833221436,
        0.9609389901161194
      ],
      "min": [
        0.0078125,
        0.5689780116081238
      ],
      "type": "VEC2"
    },
    {
      "bufferView": 0,
      "byteOffset": 76368,
      "componentType": 5125,
      "count": 8064,
      "type": "SCALAR"
    },
    {
      "bufferView": 2,
      "byteOffset": 129144,
      "componentType": 5126,
      "count": 1261,
      "max": [
        3.528140068054199,
        0.8558930158615112,
        5.09807014465332
      ],
      "min": [
        -1.1863900423049927,
        -0.7469409704208374,
        1.3944100141525269
      ],
      "type": "VEC3"
    },
    {
      "bufferView": 2,
      "byteOffset": 144276,
      "componentType": 5126,
      "count": 1261,
      "max": [
        0.9995148777961731,
        0.9997302293777466,
        0.9979780912399292
      ],
      "min": [
        -0.9990927577018738,
        -0.9993746280670166,
        -0.9963185787200928
      ],
      "type": "VEC3"
    },
    {
      "bufferView": 3,
      "byteOffset": 86096,
      "componentType": 5126,
      "count": 1261,
      "max": [
        0.9902351498603821,
        0.9992035031318665,
        0.9999964833259583,
        1.0
      ],
      "min": [
        -0.9995357990264893,
        -0.9991307258605957,
        -0.9999982118606567,
        -1.0
      ],
      "type": "VEC4"
    },
    {
      "bufferView": 1,
      "byteOffset": 43048,
      "componentType": 5126,
      "count": 1261,
      "max": [
        0.8912050127983093,
        0.9724460244178772
      ],
      "min": [
        0.0078125,
        0.009133820421993732
      ],
      "type": "VEC2"
    },
    {
      "bufferView": 0,
      "byteOffset": 108624,
      "componentType": 5125,
      "count": 6816,
      "type": "SCALAR"
    },
    {
      "bufferView": 2,
      "byteOffset": 159408,
      "componentType": 5126,
      "count": 824,
      "max": [
        3.5758700370788574,
        1.3559000492095947,
        2.5078001022338867
      ],
      "min": [
        2.2450900077819824,
        -2.192189931869507,
        0.5993710160255432
      ],
      "type": "VEC3"
    },
    {
      "bufferView": 2,
      "byteOffset": 169296,
      "componentType": 5126,
      "count": 824,
      "max": [
        0.999980628490448,
        0.9969982504844666,
        0.9971538782119751
      ],
      "min": [
        -0.9999642372131348,
        -0.9993008971214294,
        -0.995266854763031
      ],
      "type": "VEC3"
    },
    {
      "bufferView": 3,
      "byteOffset": 106272,
      "componentType": 5126,
      "count": 824,
      "max": [
        0.9988275170326233,
        0.9998457431793213,
        0.9797894954681396,
        1.0
      ],
      "min": [
        -0.9959422945976257,
        -0.9998365044593811,
        -0.994772732257843,
        1.0
      ],
      "type": "VEC4"
    },
    {
      "bufferView": 1,
      "byteOffset": 53136,
      "componentType": 5126,
      "count": 824,
      "max": [
        0.508961021900177,
        0.7139750123023987
      ],
      "min": [
        0.1067970022559166,
        0.5418729782104492
      ],
      "type": "VEC2"
    },
    {
      "bufferView": 0,
      "byteOffset": 135888,
      "componentType": 5125,
      "count": 3864,
      "type": "SCALAR"
    },
    {
      "bufferView": 2,
      "byteOffset": 179184,
      "componentType": 5126,
      "count": 5402,
      "max": [
        3.5579800605773926,
        1.2328499555587769,
        3.746040105819702
      ],
      "min": [
        2.303679943084717,
        -1.0156899690628052,
        1.2667900323867798
      ],
      "type": "VEC3"
    },
    {
      "bufferView": 2,
      "byteOffset": 244008,
      "componentType": 5126,
      "count": 5402,
      "max": [
        0.9998136162757874,
        0.9998037815093994,
        0.9971308708190918
      ],
      "min": [
        -0.9998612403869629,
        -0.997953474521637,
        -0.9980582594871521
      ],
      "type": "VEC3"
    },
    {
      "bufferView": 3,
      "byteOffset": 119456,
      "componentType": 5126,
      "count": 5402,
      "max": [
        0.999798059463501,
        0.994131326675415,
        0.9998249411582947,
        1.0
      ],
      "min": [
        -0.9999839067459106,
        -0.9816531538963318,
        -0.9915977716445923,
        -1.0
      ],
      "type": "VEC4"
    },
    {
      "bufferView": 1,
      "byteOffset": 59728,
      "componentType": 5126,
      "count": 5402,
      "max": [
        0.9464409947395325,
        0.9580050110816956
      ],
      "min": [
        0.3141539990901947,
        0.6842659711837769
      ],
      "type": "VEC2"
    },
    {
      "bufferView": 0,
      "byteOffset": 151344,
      "componentType": 5125,
      "count": 30912,
      "type": "SCALAR"
    },
    {
      "bufferView": 2,
      "byteOffset": 308832,
      "componentType": 5126,
      "count": 8532,
      "max": [
        3.7140800952911377,
        5.482399940490723,
        6.133950233459473
      ],
      "min": [
        -2.8292698860168457,
        -1.3875999450683594,
        -0.03751540184020996
      ],
      "type": "VEC3"
    },
    {
      "bufferView": 2,
      "byteOffset": 411216,
      "componentType": 5126,
      "count": 8532,
      "max": [
        0.9997156262397766,
        0.9991523623466492,
        0.9999979734420776
      ],
      "min": [
        -0.9997110962867737,
        -0.9993146657943726,
        -0.9999879002571106
      ],
      "type": "VEC3"
    },
    {
      "bufferView": 3,
      "byteOffset": 205888,
      "componentType": 5126,
      "count": 8532,
      "max": [
        1.0,
        0.999971866607666,
        0.9998236894607544,
        1.0
      ],
      "min": [
        -1.0,
        -0.9999431371688843,
        -0.9978944659233093,
        -1.0
      ],
      "type": "VEC4"
    },
    {
      "bufferView": 1,
      "byteOffset": 102944,
      "componentType": 5126,
      "count": 8532,
      "max": [
        0.9907730221748352,
        0.9921879768371582
      ],
      "min": [
        0.0078125,
        0.0078125
      ],
      "type": "VEC2"
    },
    {
      "bufferView": 0,
      "byteOffset": 274992,
      "componentType": 5125,
      "count": 43596,
      "type": "SCALAR"
    }
  ],
  "asset": {
    "extras": {
      "author": "Maximum993 (https://sketchfab.com/Maximum993)",
      "license": "CC-BY-4.0 (http://creativecommons.org/licenses/by/4.0/)",
      "source": "https://sketchfab.com/3d-models/toothless-chibi-c06e1d368f9f45e59ab3b2c7314d40b1",
      "title": "Toothless Chibi"
    },
    "generator": "Sketchfab-12.63.0",
    "version": "2.0"
  },
  "bufferViews": [
    {
      "buffer": 0,
      "byteLength": 449376,
      "name": "floatBufferViews",
      "target": 34963
    },
    {
      "buffer": 0,
      "byteLength": 171200,
      "byteOffset": 449376,
      "byteStride": 8,
      "name": "floatBufferViews",
      "target": 34962
    },
    {
      "buffer": 0,
      "byteLength": 513600,
      "byteOffset": 620576,
      "byteStride": 12,
      "name": "floatBufferViews",
      "target": 34962
    },
    {
      "buffer": 0,
      "byteLength": 342400,
      "byteOffset": 1134176,
      "byteStride": 16,
      "name": "floatBufferViews",
      "target": 34962
    }
  ],
  "buffers": [
    {
      "byteLength": 1476576,
      "uri": "scene.bin"
    }
  ],
  "images": [
    {
      "uri": "textures/toothless_sg_baseColor.png"
    },
    {
      "uri": "textures/toothless_sg_metallicRoughness.png"
    },
    {
      "uri": "textures/toothless_sg_normal.png"
    }
  ],
  "materials": [
    {
      "doubleSided": true,
      "name": "toothless_sg",
      "normalTexture": {
        "index": 2
      },
      "pbrMetallicRoughness": {
        "baseColorTexture": {
          "index": 0
        },
        "metallicRoughnessTexture": {
          "index": 1
        }
      }
    }
  ],
  "meshes": [
    {
      "name": "Object_0",
      "primitives": [
        {
          "attributes": {
            "NORMAL": 1,
            "POSITION": 0,
            "TANGENT": 2,
            "TEXCOORD_0": 3
          },
          "indices": 4,
          "material": 0,
          "mode": 4
        }
      ]
    },
    {
      "name": "Object_1",
      "primitives": [
        {
          "attributes": {
            "NORMAL": 6,
            "POSITION": 5,
            "TANGENT": 7,
            "TEXCOORD_0": 8
          },
          "indices": 9,
          "material": 0,
          "mode": 4
        }
      ]
    },
    {
      "name": "Object_2",
      "primitives": [
        {
          "attributes": {
            "NORMAL": 11,
            "POSITION": 10,
            "TANGENT": 12,
            "TEXCOORD_0": 13
          },
          "indices": 14,
          "material": 0,
          "mode": 4
        }
      ]
    },
    {
      "name": "Object_3",
      "primitives": [
        {
          "attributes": {
            "NORMAL": 16,
            "POSITION": 15,
            "TANGENT": 17,
            "TEXCOORD_0": 18
          },
          "indices": 19,
          "material": 0,
          "mode": 4
        }
      ]
    },
    {
      "name": "Object_4",
      "primitives": [
        {
          "attributes": {
            "NORMAL": 21,
            "POSITION": 20,
            "TANGENT": 22,
            "TEXCOORD_0": 23
          },
          "indices": 24,
          "material": 0,
          "mode": 4
        }
      ]
    },
    {
      "name": "Object_5",
      "primitives": [
        {
          "attributes": {
            "NORMAL": 26,
            "POSITION": 25,
            "TANGENT": 27,
            "TEXCOORD_0": 28
          },
          "indices": 29,
          "material": 0,
          "mode": 4
        }
      ]
    },
    {
      "name": "Object_6",
      "primitives": [
        {
          "attributes": {
            "NORMAL": 31,
            "POSITION": 30,
            "TANGENT": 32,
            "TEXCOORD_0": 33
          },
          "indices": 34,
          "material": 0,
          "mode": 4
        }
      ]
    }
  ],
  "nodes": [
    {
      "children": [
        1
      ],
      "matrix": [
        1.0,
        0.0,
        0.0,
        0.0,
        0.0,
        2.220446049250313e-16,
        -1.0,
        0.0,
        0.0,
        1.0,
        2.220446049250313e-16,
        0.0,
        0.0,
        0.0,
        0.0,
        1.0
      ],
      "name": "Sketchfab_model"
    },
    {
      "children": [
        2,
        3,
        4,
        5,
        6,
        7,
        8
      ],
      "name": "toothless texture.obj.cleaner.materialmerger.gles"
    },
    {
      "mesh": 0,
      "name": "Object_2"
    },
    {
      "mesh": 1,
      "name": "Object_3"
    },
    {
      "mesh": 2,
      "name": "Object_4"
    },
    {
      "mesh": 3,
      "name": "Object_5"
    },
    {
      "mesh": 4,
      "name": "Object_6"
    },
    {
      "mesh": 5,
      "name": "Object_7"
    },
    {
      "mesh": 6,
      "name": "Object_8"
    }
  ],
  "samplers": [
    {
      "magFilter": 9729,
      "minFilter": 9987,
      "wrapS": 10497,
      "wrapT": 10497
    }
  ],
  "scene": 0,
  "scenes": [
    {
      "name": "Sketchfab_Scene",
      "nodes": [
        0
      ]
    }
  ],
  "textures": [
    {
      "sampler": 0,
      "source": 0
    },
    {
      "sampler": 0,
      "source": 1
    },
    {
      "sampler": 0,
      "source": 2
    }
  ]
}
