<svg xmlns="http://www.w3.org/2000/svg" version="1.1" xmlns:xlink="http://www.w3.org/1999/xlink" xmlns:svgjs="http://svgjs.dev/svgjs" width="2000" height="1999" viewBox="0 0 2000 1999"><g transform="matrix(1,0,0,1,-0.431486880466764,-0.4312711370263287)"><svg viewBox="0 0 343 343" data-background-color="#fafafa" preserveAspectRatio="xMidYMid meet" height="1999" width="2000" xmlns="http://www.w3.org/2000/svg" xmlns:xlink="http://www.w3.org/1999/xlink"><g id="tight-bounds" transform="matrix(1,0,0,1,0.0740000000000407,0.07400000000001228)"><svg viewBox="0 0 342.85155851775386 342.85155851775386" height="342.85155851775386" width="342.85155851775386"><g><svg></svg></g><g><svg viewBox="0 0 342.85155851775386 342.85155851775386" height="342.85155851775386" width="342.85155851775386"><g><path d="M0 171.426c0-94.676 76.75-171.426 171.426-171.426 94.676 0 171.426 76.75 171.426 171.426 0 94.676-76.75 171.426-171.426 171.426-94.676 0-171.426-76.75-171.426-171.426zM171.426 332.588c89.007 0 161.162-72.155 161.162-161.162 0-89.007-72.155-161.162-161.162-161.162-89.007 0-161.162 72.155-161.162 161.162 0 89.007 72.155 161.162 161.162 161.162z" data-fill-palette-color="tertiary" fill="#000000" stroke="transparent"></path><ellipse rx="164.56874808852186" ry="164.56874808852186" cx="171.42577925887693" cy="171.42577925887693" fill="#000000" stroke="transparent" stroke-width="0" fill-opacity="1" data-fill-palette-color="tertiary"></ellipse></g><g transform="matrix(1,0,0,1,64.84655864529837,80.3300862288049)"><svg viewBox="0 0 213.1584412271571 182.19138606014405" height="182.19138606014405" width="213.1584412271571"><g><svg viewBox="0 0 213.1584412271571 182.19138606014405" height="182.19138606014405" width="213.1584412271571"><g><svg viewBox="0 0 213.1584412271571 182.19138606014405" height="182.19138606014405" width="213.1584412271571"><g transform="matrix(1,0,0,1,0,68.37623533418675)"><svg viewBox="0 0 213.1584412271571 113.8151507259573" height="113.8151507259573" width="213.1584412271571"><g id="textblocktransform"><svg viewBox="0 0 213.1584412271571 113.8151507259573" height="113.8151507259573" width="213.1584412271571" id="textblock"><g><svg viewBox="0 0 213.1584412271571 113.8151507259573" height="113.8151507259573" width="213.1584412271571"><g transform="matrix(1,0,0,1,0,0)"><svg width="213.1584412271571" viewBox="1.2000000476837158 -36.130001068115234 69.04000091552734 36.86000061035156" height="113.8151507259573" data-palette-color="#fffdfd"><path d="M25.85-35.6L38.99-35.6 36.74 0.24 25.61 0.73 25.71-18.16 20.68-2.93 16.38-2.93 12.52-16.55 12.48-0.73 1.2-0.39 1.68-34.13 14.23-34.62 19.21-18.46 25.85-35.6ZM69.94-21.39L70.24-4.98Q69.09-3.54 67.4-2.47 65.72-1.39 63.79-0.68 61.86 0.02 59.84 0.38 57.81 0.73 55.98 0.73L55.98 0.73Q52.44 0.73 49.46-0.54 46.48-1.81 44.32-4.04 42.16-6.27 40.94-9.3 39.72-12.33 39.72-15.82L39.72-15.82Q39.72-18.48 40.33-21.03 40.94-23.58 42.08-25.84 43.21-28.1 44.85-29.99 46.48-31.88 48.56-33.25 50.63-34.62 53.1-35.38 55.56-36.13 58.37-36.13L58.37-36.13Q59.42-36.13 60.62-36.05 61.81-35.96 63-35.75 64.18-35.55 65.31-35.18 66.43-34.81 67.36-34.28L67.36-34.28 66.67-24.95Q65.31-25.46 63.85-25.65 62.4-25.83 61.01-25.83L61.01-25.83Q59.06-25.83 57.36-25.23 55.66-24.63 54.4-23.51 53.15-22.39 52.41-20.78 51.68-19.17 51.68-17.14L51.68-17.14Q51.68-15.87 52.02-14.69 52.37-13.5 53.06-12.59 53.76-11.67 54.79-11.11 55.83-10.55 57.2-10.55L57.2-10.55Q58.13-10.55 59.12-10.79 60.1-11.04 60.81-11.62L60.81-11.62 60.91-13.53 55.05-13.62 55.34-20.95Q58.98-21.07 62.62-21.15 66.26-21.24 69.94-21.39L69.94-21.39Z" opacity="1" transform="matrix(1,0,0,1,0,0)" fill="#ffffff" class="wordmark-text-0" data-fill-palette-color="quaternary" id="text-0"></path></svg></g></svg></g></svg></g></svg></g><g transform="matrix(1,0,0,1,40.713262274387006,0)"><svg viewBox="0 0 131.7319166783831 41.50720981140565" height="41.50720981140565" width="131.7319166783831"><g><svg xmlns="http://www.w3.org/2000/svg" xmlns:xlink="http://www.w3.org/1999/xlink" version="1.1" x="0" y="0" viewBox="10.825594902038574 38.09199905395508 80.66622924804688 25.41699981689453" enable-background="new 0 0 100 100" xml:space="preserve" height="41.50720981140565" width="131.7319166783831" class="icon-icon-0" data-fill-palette-color="quaternary" id="icon-0"><path d="M31.376 42.592c-7.333 0-11.834 2.75-11.834 4.625s1.584 3.625 9.667 3.625 24.5-10.25 41.25-10.25c17.083 0.002 17.083 8.583 17.083 8.583s-2.254-1.958-13.583-1.958c-16.917 0-32.667 9.125-43.874 9.125-11.209 0-14.108-5.008-14.108-8.925 0-3.375 4.399-9.325 15.232-9.325s12.667 6.583 12.667 6.583S38.709 42.592 31.376 42.592zM10.876 48.759c0 0-2.167 14.75 21.916 14.75 24.084 0 33.251-10.167 51.918-10.167 5.654 0.12 6.666 2.792 6.666 2.792s2.25-7.375-13.084-7.375c-15.332 0-33.308 9.917-47.832 9.917C15.935 58.676 10.876 48.759 10.876 48.759z" fill="#ffffff" data-fill-palette-color="quaternary"></path></svg></g></svg></g><g></g></svg></g></svg></g></svg></g></svg></g><defs></defs></svg><rect width="342.85155851775386" height="342.85155851775386" fill="none" stroke="none" visibility="hidden"></rect></g></svg></g></svg>